#Comment line ignore any data following # character 
#Hierarchical Translation and Rotation (.htr) file 
[Header]	
#Header keywords are followed by a single value 
FileType HTR		#Single word string
DataType HTRS		#Translation followed by rotation and scale data
FileVersion 1		#integer
NumSegments 84		#integer
NumFrames 2		#integer
DataFrameRate 30		#integer, data frame rate in this file
EulerRotationOrder ZYX
CalibrationUnits mm
RotationUnits Degrees
GlobalAxisofGravity Y
BoneLengthAxis Y
ScaleFactor 1.00
[SegmentNames&Hierarchy]
#CHILD	PARENT
MASTER GLOBAL
root MASTER
chest root
L_mid_tent01 root
R_mid_tent01 root
spine01 root
Bip01_Neck chest
L_humerus chest
R_humerus chest
weapon_bone chest
Bip01_Head Bip01_Neck
eye_left_bone Bip01_Head
eye_right_bone Bip01_Head
L_forearm L_humerus
L_front_hand L_forearm
L_weapon_bone L_forearm
L_front_hand01_01 L_front_hand
L_front_hand02_01 L_front_hand
L_front_hand03_01 L_front_hand
L_front_hand01_02 L_front_hand01_01
L_front_hand02_02 L_front_hand02_01
L_front_hand03_02 L_front_hand03_01
R_forearm R_humerus
R_front_hand R_forearm
R_weapon_bone R_forearm
R_front_hand01_01 R_front_hand
R_front_hand02_01 R_front_hand
R_front_hand03_01 R_front_hand
R_front_hand01_02 R_front_hand01_01
R_front_hand02_02 R_front_hand02_01
R_front_hand03_02 R_front_hand03_01
null_rope01_connect L_mid_tent01
Rope1_Seg01 null_rope01_connect
Rope1_Seg02 Rope1_Seg01
Rope1_Seg03 Rope1_Seg02
Rope1_Seg04 Rope1_Seg03
Rope1_Seg05 Rope1_Seg04
Rope1_Seg06 Rope1_Seg05
Rope1_Seg07 Rope1_Seg06
Rope1_Seg09 Rope1_Seg07
L_mid_hand01 Rope1_Seg09
L_mid_hand02 Rope1_Seg09
L_mid_hand03 Rope1_Seg09
null_rope02_connect R_mid_tent01
Rope2_Seg01 null_rope02_connect
Rope2_Seg02 Rope2_Seg01
Rope2_Seg03 Rope2_Seg02
Rope2_Seg04 Rope2_Seg03
Rope2_Seg05 Rope2_Seg04
Rope2_Seg06 Rope2_Seg05
Rope2_Seg07 Rope2_Seg06
Rope2_Seg09 Rope2_Seg07
R_mid_hand01 Rope2_Seg09
R_mid_hand02 Rope2_Seg09
R_mid_hand03 Rope2_Seg09
spine02 spine01
spine03 spine02
pelvis spine03
null_rope03_connect pelvis
null_rope04_connect pelvis
Rope3_Seg01 null_rope03_connect
Rope3_Seg02 Rope3_Seg01
Rope3_Seg03 Rope3_Seg02
Rope3_Seg04 Rope3_Seg03
Rope3_Seg05 Rope3_Seg04
Rope3_Seg06 Rope3_Seg05
Rope3_Seg07 Rope3_Seg06
Rope3_Seg08 Rope3_Seg07
Rope3_Seg09 Rope3_Seg08
R_rear_hand01 Rope3_Seg09
R_rear_hand02 Rope3_Seg09
R_rear_hand03 Rope3_Seg09
Rope4_Seg01 null_rope04_connect
Rope4_Seg02 Rope4_Seg01
Rope4_Seg03 Rope4_Seg02
Rope4_Seg04 Rope4_Seg03
Rope4_Seg05 Rope4_Seg04
Rope4_Seg06 Rope4_Seg05
Rope4_Seg07 Rope4_Seg06
Rope4_Seg08 Rope4_Seg07
Rope4_Seg09 Rope4_Seg08
L_rear_hand01 Rope4_Seg09
L_rear_hand02 Rope4_Seg09
L_rear_hand03 Rope4_Seg09
[BasePosition]
#SegmentName Tx, Ty, Tz, Rx, Ry, Rz, BoneLength
MASTER 0.000000 0.000000 0.000000 -90.000000 0.000000 0.000000 10.000000 
root 0.000000 0.000000 0.000000 0.000000 0.000000 0.000000 10.000000 
chest 0.000000 0.000000 0.000000 0.000000 0.000000 0.000000 10.000000 
L_mid_tent01 0.000000 0.000000 0.000000 0.000000 0.000000 0.000000 10.000000 
R_mid_tent01 0.000000 0.000000 0.000000 0.000000 0.000000 0.000000 10.000000 
spine01 0.000000 0.000000 0.000000 0.000000 0.000000 0.000000 10.000000 
Bip01_Neck 0.000000 0.000000 0.000000 0.000000 0.000000 0.000000 10.000000 
L_humerus 0.000000 0.000000 0.000000 0.000000 0.000000 0.000000 10.000000 
R_humerus 0.000000 0.000000 0.000000 0.000000 0.000000 0.000000 10.000000 
weapon_bone 0.000000 0.000000 0.000000 0.000000 0.000000 0.000000 10.000000 
Bip01_Head 0.000000 0.000000 0.000000 0.000000 0.000000 0.000000 10.000000 
eye_left_bone 0.000000 0.000000 0.000000 0.000000 0.000000 0.000000 10.000000 
eye_right_bone 0.000000 0.000000 0.000000 0.000000 0.000000 0.000000 10.000000 
L_forearm 0.000000 0.000000 0.000000 0.000000 0.000000 0.000000 10.000000 
L_front_hand 0.000000 0.000000 0.000000 0.000000 0.000000 0.000000 10.000000 
L_weapon_bone 0.000000 0.000000 0.000000 0.000000 0.000000 0.000000 10.000000 
L_front_hand01_01 0.000000 0.000000 0.000000 0.000000 0.000000 0.000000 10.000000 
L_front_hand02_01 0.000000 0.000000 0.000000 0.000000 0.000000 0.000000 10.000000 
L_front_hand03_01 0.000000 0.000000 0.000000 0.000000 0.000000 0.000000 10.000000 
L_front_hand01_02 0.000000 0.000000 0.000000 0.000000 0.000000 0.000000 10.000000 
L_front_hand02_02 0.000000 0.000000 0.000000 0.000000 0.000000 0.000000 10.000000 
L_front_hand03_02 0.000000 0.000000 0.000000 0.000000 0.000000 0.000000 10.000000 
R_forearm 0.000000 0.000000 0.000000 0.000000 0.000000 0.000000 10.000000 
R_front_hand 0.000000 0.000000 0.000000 0.000000 0.000000 0.000000 10.000000 
R_weapon_bone 0.000000 0.000000 0.000000 0.000000 0.000000 0.000000 10.000000 
R_front_hand01_01 0.000000 0.000000 0.000000 0.000000 0.000000 0.000000 10.000000 
R_front_hand02_01 0.000000 0.000000 0.000000 0.000000 0.000000 0.000000 10.000000 
R_front_hand03_01 0.000000 0.000000 0.000000 0.000000 0.000000 0.000000 10.000000 
R_front_hand01_02 0.000000 0.000000 0.000000 0.000000 0.000000 0.000000 10.000000 
R_front_hand02_02 0.000000 0.000000 0.000000 0.000000 0.000000 0.000000 10.000000 
R_front_hand03_02 0.000000 0.000000 0.000000 0.000000 0.000000 0.000000 10.000000 
null_rope01_connect 0.000000 0.000000 0.000000 0.000000 0.000000 0.000000 10.000000 
Rope1_Seg01 0.000000 0.000000 0.000000 0.000000 0.000000 0.000000 10.000000 
Rope1_Seg02 0.000000 0.000000 0.000000 0.000000 0.000000 0.000000 10.000000 
Rope1_Seg03 0.000000 0.000000 0.000000 0.000000 0.000000 0.000000 10.000000 
Rope1_Seg04 0.000000 0.000000 0.000000 0.000000 0.000000 0.000000 10.000000 
Rope1_Seg05 0.000000 0.000000 0.000000 0.000000 0.000000 0.000000 10.000000 
Rope1_Seg06 0.000000 0.000000 0.000000 0.000000 0.000000 0.000000 10.000000 
Rope1_Seg07 0.000000 0.000000 0.000000 0.000000 0.000000 0.000000 10.000000 
Rope1_Seg09 0.000000 0.000000 0.000000 0.000000 0.000000 0.000000 10.000000 
L_mid_hand01 0.000000 0.000000 0.000000 0.000000 0.000000 0.000000 10.000000 
L_mid_hand02 0.000000 0.000000 0.000000 0.000000 0.000000 0.000000 10.000000 
L_mid_hand03 0.000000 0.000000 0.000000 0.000000 0.000000 0.000000 10.000000 
null_rope02_connect 0.000000 0.000000 0.000000 0.000000 0.000000 0.000000 10.000000 
Rope2_Seg01 0.000000 0.000000 0.000000 0.000000 0.000000 0.000000 10.000000 
Rope2_Seg02 0.000000 0.000000 0.000000 0.000000 0.000000 0.000000 10.000000 
Rope2_Seg03 0.000000 0.000000 0.000000 0.000000 0.000000 0.000000 10.000000 
Rope2_Seg04 0.000000 0.000000 0.000000 0.000000 0.000000 0.000000 10.000000 
Rope2_Seg05 0.000000 0.000000 0.000000 0.000000 0.000000 0.000000 10.000000 
Rope2_Seg06 0.000000 0.000000 0.000000 0.000000 0.000000 0.000000 10.000000 
Rope2_Seg07 0.000000 0.000000 0.000000 0.000000 0.000000 0.000000 10.000000 
Rope2_Seg09 0.000000 0.000000 0.000000 0.000000 0.000000 0.000000 10.000000 
R_mid_hand01 0.000000 0.000000 0.000000 0.000000 0.000000 0.000000 10.000000 
R_mid_hand02 0.000000 0.000000 0.000000 0.000000 0.000000 0.000000 10.000000 
R_mid_hand03 0.000000 0.000000 0.000000 0.000000 0.000000 0.000000 10.000000 
spine02 0.000000 0.000000 0.000000 0.000000 0.000000 0.000000 10.000000 
spine03 0.000000 0.000000 0.000000 0.000000 0.000000 0.000000 10.000000 
pelvis 0.000000 0.000000 0.000000 0.000000 0.000000 0.000000 10.000000 
null_rope03_connect 0.000000 0.000000 0.000000 0.000000 0.000000 0.000000 10.000000 
null_rope04_connect 0.000000 0.000000 0.000000 0.000000 0.000000 0.000000 10.000000 
Rope3_Seg01 0.000000 0.000000 0.000000 0.000000 0.000000 0.000000 10.000000 
Rope3_Seg02 0.000000 0.000000 0.000000 0.000000 0.000000 0.000000 10.000000 
Rope3_Seg03 0.000000 0.000000 0.000000 0.000000 0.000000 0.000000 10.000000 
Rope3_Seg04 0.000000 0.000000 0.000000 0.000000 0.000000 0.000000 10.000000 
Rope3_Seg05 0.000000 0.000000 0.000000 0.000000 0.000000 0.000000 10.000000 
Rope3_Seg06 0.000000 0.000000 0.000000 0.000000 0.000000 0.000000 10.000000 
Rope3_Seg07 0.000000 0.000000 0.000000 0.000000 0.000000 0.000000 10.000000 
Rope3_Seg08 0.000000 0.000000 0.000000 0.000000 0.000000 0.000000 10.000000 
Rope3_Seg09 0.000000 0.000000 0.000000 0.000000 0.000000 0.000000 10.000000 
R_rear_hand01 0.000000 0.000000 0.000000 0.000000 0.000000 0.000000 10.000000 
R_rear_hand02 0.000000 0.000000 0.000000 0.000000 0.000000 0.000000 10.000000 
R_rear_hand03 0.000000 0.000000 0.000000 0.000000 0.000000 0.000000 10.000000 
Rope4_Seg01 0.000000 0.000000 0.000000 0.000000 0.000000 0.000000 10.000000 
Rope4_Seg02 0.000000 0.000000 0.000000 0.000000 0.000000 0.000000 10.000000 
Rope4_Seg03 0.000000 0.000000 0.000000 0.000000 0.000000 0.000000 10.000000 
Rope4_Seg04 0.000000 0.000000 0.000000 0.000000 0.000000 0.000000 10.000000 
Rope4_Seg05 0.000000 0.000000 0.000000 0.000000 0.000000 0.000000 10.000000 
Rope4_Seg06 0.000000 0.000000 0.000000 0.000000 0.000000 0.000000 10.000000 
Rope4_Seg07 0.000000 0.000000 0.000000 0.000000 0.000000 0.000000 10.000000 
Rope4_Seg08 0.000000 0.000000 0.000000 0.000000 0.000000 0.000000 10.000000 
Rope4_Seg09 0.000000 0.000000 0.000000 0.000000 0.000000 0.000000 10.000000 
L_rear_hand01 0.000000 0.000000 0.000000 0.000000 0.000000 0.000000 10.000000 
L_rear_hand02 0.000000 0.000000 0.000000 0.000000 0.000000 0.000000 10.000000 
L_rear_hand03 0.000000 0.000000 0.000000 0.000000 0.000000 0.000000 10.000000 
#Beginning of Data. Separated by tabs
#Fr	Tx	Ty	Tz	Rx	Ry	Rz	SF
[MASTER]
6 -799.420898 -822.496826 0.000000 0.000046 0.002347 -87.735107 1146.985107
7 -885.429810 -1015.661743 0.000000 0.000065 0.002346 -86.819366 1347.425171
[root]
6 -62.822147 62.914536 1117.727783 -98.085167 -7.143607 177.392944 1121.258301
7 -62.822170 49.337353 1096.564697 -100.012527 -7.634827 177.020737 1099.470215
[chest]
6 -84.512650 -34.090519 0.000000 11.113739 -0.747526 156.385498 91.129311
7 -84.512650 -34.090519 0.000000 13.394588 -0.744965 156.385818 91.129311
[L_mid_tent01]
6 23.228750 24.509907 -223.761200 -11.368604 17.983805 -11.308082 226.294907
7 23.228750 24.509907 -223.761200 -13.019650 21.055021 -15.352934 226.294907
[R_mid_tent01]
6 23.228794 24.509907 226.238495 -158.336624 -21.850428 -28.223747 228.744751
7 23.228794 24.509907 226.238495 -158.833786 -18.075159 -26.733372 228.744751
[spine01]
6 -0.361383 -0.195265 0.000000 0.001815 0.001488 11.320962 0.410763
7 -0.361383 -0.195265 0.000000 0.001815 0.001488 11.320960 0.410763
[Bip01_Neck]
6 165.484543 71.581718 0.000119 175.896118 1.177290 24.871183 180.302734
7 165.484543 71.581718 0.000119 175.896118 1.177290 24.871183 180.302734
[L_humerus]
6 -13.983130 -135.272980 -120.471481 161.052933 33.449436 -108.544250 181.680161
7 -13.983130 -135.272980 -120.471481 164.043594 22.732168 -108.023979 181.680161
[R_humerus]
6 -13.983309 -135.273102 125.287651 -165.004272 -24.587234 -102.716400 184.909012
7 -13.983309 -135.273102 125.287651 -166.100861 -13.299152 -103.173454 184.909012
[weapon_bone]
6 235.964890 -300.705902 0.000000 0.000000 -89.951546 -128.212341 382.234833
7 235.964890 -300.705902 0.000000 0.000000 -89.951546 -128.212341 382.234833
[Bip01_Head]
6 201.313766 211.516800 15.929766 15.069544 8.221157 -71.514008 292.438629
7 201.313766 211.516800 15.929775 17.041096 7.790429 -72.678360 292.438629
[eye_left_bone]
6 -24.626970 125.451866 -64.772606 0.000000 -90.000000 -99.840431 143.318359
7 -24.626970 125.451866 -64.772606 0.000000 -90.000000 -99.840431 143.318359
[eye_right_bone]
6 -24.626970 125.451866 64.327362 0.000000 -89.965736 80.156380 143.117676
7 -24.626970 125.451866 64.327362 0.000000 -89.965736 80.156380 143.117676
[L_forearm]
6 322.776093 0.000000 -0.000119 0.000357 -0.002320 -107.506004 322.776093
7 322.776093 0.000000 -0.000119 0.000357 -0.002320 -107.506004 322.776093
[L_front_hand]
6 241.149185 -0.042021 -3.300071 -179.431961 -2.195943 -5.942918 241.171753
7 241.149185 -0.042021 -3.300071 -179.431961 -2.195943 -5.942918 241.171753
[L_weapon_bone]
6 156.183838 0.000000 0.000000 0.000014 0.000007 0.000001 156.183838
7 156.183838 0.000000 0.000000 0.000014 0.000007 0.000001 156.183838
[L_front_hand01_01]
6 86.095154 20.947098 -0.655860 0.139491 -0.584553 24.181786 88.609184
7 86.095154 20.947098 -0.655860 0.139491 -0.584553 24.181787 88.609184
[L_front_hand02_01]
6 86.935165 -11.437475 24.513514 119.190460 -21.905661 -12.119134 91.046425
7 86.935165 -11.437475 24.513514 119.190460 -21.905655 -12.119137 91.046425
[L_front_hand03_01]
6 86.637497 -14.123976 -20.424902 -120.437630 20.554031 -14.327168 90.126129
7 86.637497 -14.123976 -20.424902 -120.437630 20.554033 -14.327170 90.126129
[L_front_hand01_02]
6 71.020905 -0.000179 0.000030 0.000334 -0.002323 -106.379684 71.020905
7 71.020905 -0.000179 0.000030 0.000334 -0.002323 -106.379684 71.020905
[L_front_hand02_02]
6 71.020927 -0.000119 0.000060 0.000334 -0.002323 -106.379684 71.020927
7 71.020927 -0.000119 0.000060 0.000334 -0.002323 -106.379684 71.020927
[L_front_hand03_02]
6 71.020905 -0.000060 0.000060 0.000334 -0.002323 -106.379684 71.020905
7 71.020905 -0.000060 0.000060 0.000334 -0.002323 -106.379684 71.020905
[R_forearm]
6 322.776428 -0.000060 0.000030 0.196737 0.083011 -114.368637 322.776428
7 322.776428 -0.000060 0.000030 0.196737 0.083011 -114.368637 322.776428
[R_front_hand]
6 238.847015 -0.006795 2.210259 -0.341870 1.692706 -0.151780 238.857239
7 238.847015 -0.006795 2.210259 -0.341870 1.692705 -0.151779 238.857239
[R_weapon_bone]
6 155.664093 0.002503 -0.000030 0.003487 0.001180 -90.988930 155.664078
7 155.664093 0.002503 -0.000030 0.003487 0.001180 -90.988930 155.664078
[R_front_hand01_01]
6 87.624611 14.231146 22.918642 -119.218056 -22.033409 12.303375 91.683487
7 87.624611 14.231146 22.918642 -119.218056 -22.033409 12.303375 91.683487
[R_front_hand02_01]
6 89.356956 14.367283 -19.491137 120.545532 20.947184 14.823009 92.579636
7 89.356956 14.367283 -19.491137 120.545532 20.947184 14.823009 92.579636
[R_front_hand03_01]
6 87.286232 -22.307278 -0.143439 -0.231628 -0.392922 -24.567768 90.091743
7 87.286232 -22.307278 -0.143439 -0.231628 -0.392922 -24.567768 90.091743
[R_front_hand01_02]
6 71.020905 0.000060 0.000119 0.002323 -0.000334 106.381714 71.020905
7 71.020905 0.000060 0.000119 0.002323 -0.000334 106.381714 71.020905
[R_front_hand02_02]
6 71.020844 -0.000030 -0.000119 0.002323 -0.000334 106.381714 71.020836
7 71.020844 -0.000030 -0.000119 0.002323 -0.000334 106.381714 71.020836
[R_front_hand03_02]
6 71.020905 0.000000 0.000030 0.002323 -0.000334 106.381714 71.020905
7 71.020905 0.000000 0.000030 0.002323 -0.000334 106.381714 71.020905
[null_rope01_connect]
6 328.732483 0.000000 -0.000238 120.664909 64.448677 48.679707 328.732483
7 328.732483 0.000000 -0.000238 117.787079 61.071091 50.471668 328.732483
[Rope1_Seg01]
6 -0.000006 0.000032 0.000025 30.584805 4.635972 66.761658 0.000041
7 -0.000008 0.000031 0.000031 23.318932 5.907072 69.325615 0.000044
[Rope1_Seg02]
6 139.999863 -0.000179 0.000000 14.308739 -2.379733 -4.835112 139.999863
7 139.999863 -0.000179 0.000000 9.509831 -0.743745 -3.931975 139.999863
[Rope1_Seg03]
6 139.999924 0.000060 -0.000060 21.773399 -4.930645 -5.853395 139.999924
7 139.999924 0.000060 -0.000060 19.262339 -2.155067 -5.935408 139.999924
[Rope1_Seg04]
6 139.999924 -0.000060 -0.000119 38.932701 -14.610705 -10.604243 139.999924
7 139.999924 -0.000060 -0.000119 53.076397 -7.967367 -13.974447 139.999924
[Rope1_Seg05]
6 139.999832 0.000119 -0.000060 -2.238438 -2.352628 4.684862 139.999832
7 139.999832 0.000119 -0.000060 3.504763 -9.158607 6.967926 139.999832
[Rope1_Seg06]
6 139.999954 0.000119 -0.000060 -11.493253 6.948001 2.927453 139.999954
7 139.999954 0.000119 -0.000060 -2.556865 0.216960 2.109274 139.999954
[Rope1_Seg07]
6 139.999985 0.000060 0.000000 -2.294691 0.788778 1.262164 139.999985
7 139.999985 0.000060 0.000000 -0.017612 -0.665906 0.763415 139.999985
[Rope1_Seg09]
6 121.602913 0.000119 -0.000089 -89.793175 -1.359789 0.847147 121.602913
7 121.602913 0.000119 -0.000089 -89.793175 -1.359789 0.847147 121.602913
[L_mid_hand01]
6 103.859421 1.038730 8.195221 106.855484 -31.239275 -9.461397 104.187431
7 103.859421 1.038730 8.195221 106.855484 -31.239275 -9.461397 104.187431
[L_mid_hand02]
6 105.572853 -4.139662 -10.864139 -142.331345 25.752670 -28.774628 106.211075
7 105.572853 -4.139662 -10.864139 -142.331345 25.752670 -28.774628 106.211075
[L_mid_hand03]
6 104.641464 17.579376 -3.913581 -16.122810 9.734291 34.223598 106.179977
7 104.641464 17.579376 -3.913581 -16.122810 9.734291 34.223598 106.179977
[null_rope02_connect]
6 328.732849 0.000179 -0.000119 87.452843 -61.597092 153.486725 328.732849
7 328.732849 0.000179 -0.000119 87.169518 -64.820709 154.085098 328.732849
[Rope2_Seg01]
6 -0.000113 -0.000127 -0.000153 87.761017 -20.273605 70.760330 0.000228
7 -0.000114 -0.000122 -0.000153 87.344749 -20.372696 71.636055 0.000226
[Rope2_Seg02]
6 139.999741 -0.000060 -0.000119 -0.043233 0.560493 -0.077680 139.999756
7 139.999741 -0.000060 -0.000119 -0.140597 1.005815 0.133961 139.999756
[Rope2_Seg03]
6 140.000107 0.000030 0.000000 -0.048359 0.694022 -0.092605 140.000107
7 140.000107 0.000030 0.000000 -0.184463 1.248269 0.167813 140.000107
[Rope2_Seg04]
6 139.999802 0.000000 -0.000060 -0.068490 0.886873 -0.117569 139.999802
7 139.999802 0.000000 -0.000060 -0.257390 1.609564 0.220622 139.999802
[Rope2_Seg05]
6 139.999985 -0.000060 0.000119 -0.138476 1.193401 -0.158053 139.999985
7 139.999985 -0.000060 0.000119 -0.432691 2.179090 0.310015 139.999985
[Rope2_Seg06]
6 139.999893 -0.000030 -0.000119 -0.390117 2.079719 0.217172 139.999893
7 139.999893 -0.000030 -0.000119 -1.254817 4.672293 1.356329 139.999893
[Rope2_Seg07]
6 139.999893 0.000060 -0.000060 -1.517219 5.210639 2.096437 139.999893
7 139.999893 0.000060 -0.000060 -4.689841 12.075968 4.932721 139.999893
[Rope2_Seg09]
6 121.338966 0.000089 -0.000060 33.793236 -1.359788 -0.847141 121.338966
7 121.338966 0.000089 -0.000060 33.793236 -1.359788 -0.847141 121.338966
[R_mid_hand01]
6 104.680779 11.144459 -10.335981 -41.523792 25.424656 28.595957 105.778534
7 104.680779 11.144459 -10.335981 -41.523792 25.424656 28.595957 105.778534
[R_mid_hand02]
6 104.070427 2.443552 8.231699 72.847389 -32.746803 10.013901 104.424065
7 104.070427 2.443552 8.231699 72.847389 -32.746803 10.013901 104.424065
[R_mid_hand03]
6 106.028137 -11.221827 -5.996406 -167.901306 10.259192 -37.009720 106.788818
7 106.028137 -11.221827 -5.996406 -167.901306 10.259192 -37.009720 106.788818
[spine02]
6 129.756927 0.001550 0.000119 0.001147 -1.797837 -7.854275 129.756927
7 129.756927 0.001550 0.000119 0.001147 -1.797837 -7.854274 129.756927
[spine03]
6 79.115631 0.000000 -0.000119 1.459971 -2.848092 23.765963 79.115631
7 79.115631 0.000000 -0.000119 1.459971 -2.848092 23.765961 79.115631
[pelvis]
6 169.435242 0.051022 0.000000 -0.000005 0.000003 -4.322055 169.435257
7 169.435242 0.051022 0.000000 -0.000005 0.000003 -4.322055 169.435257
[null_rope03_connect]
6 -1.257226 -2.466202 137.391083 -154.580368 83.640724 99.293045 137.418976
7 -1.257226 -2.466202 137.391083 -158.877777 81.762932 95.454910 137.418976
[null_rope04_connect]
6 -1.259640 -2.480268 -137.844437 -154.580368 83.640724 99.293045 137.872513
7 -1.259640 -2.480268 -137.844437 -158.877777 81.762932 95.454910 137.872513
[Rope3_Seg01]
6 -0.000019 -0.000062 0.000025 -129.961243 1.820992 114.039001 0.000070
7 -0.000015 -0.000061 0.000031 -128.994507 0.346593 126.679314 0.000070
[Rope3_Seg02]
6 139.999924 -0.000119 0.000060 -0.255268 6.235286 3.014410 139.999924
7 139.999924 -0.000119 0.000060 -0.882873 6.603202 3.999033 139.999924
[Rope3_Seg03]
6 139.999924 -0.000119 0.000119 0.221707 7.610568 3.754363 139.999924
7 139.999924 -0.000119 0.000119 -0.374446 8.882599 5.639905 139.999924
[Rope3_Seg04]
6 139.999924 0.000119 0.000000 1.423454 11.227122 5.451337 139.999924
7 139.999924 0.000119 0.000000 0.970063 12.706918 8.502465 139.999924
[Rope3_Seg05]
6 139.999924 -0.000238 0.000060 4.142198 14.335396 6.630826 139.999924
7 139.999924 -0.000238 0.000060 5.010388 18.081810 12.619967 139.999924
[Rope3_Seg06]
6 139.999893 -0.000119 -0.000060 0.664383 1.188153 0.948309 139.999893
7 139.999893 -0.000119 -0.000060 2.732390 6.403365 3.365683 139.999893
[Rope3_Seg07]
6 139.999771 0.000060 -0.000119 -2.379801 -11.642650 -3.326418 139.999771
7 139.999771 0.000060 -0.000119 -0.687207 -5.751556 -4.139287 139.999771
[Rope3_Seg08]
6 139.999985 -0.000060 0.000000 -0.523377 -6.530465 -1.999635 139.999985
7 139.999985 -0.000060 0.000000 -0.092357 -4.301587 -3.296423 139.999985
[Rope3_Seg09]
6 90.185997 -0.000179 -0.000060 89.793228 -1.359877 -0.847183 90.185997
7 90.185997 -0.000179 -0.000060 89.793228 -1.359877 -0.847183 90.185997
[R_rear_hand01]
6 103.366196 -6.073594 -10.757982 -161.551193 16.666374 -30.088671 104.101845
7 103.366196 -6.073594 -10.757982 -161.551193 16.666374 -30.088671 104.101845
[R_rear_hand02]
6 100.509819 12.039542 -7.992327 -34.280552 19.289745 28.875523 101.543350
7 100.509819 12.039542 -7.992327 -34.280552 19.289745 28.875523 101.543350
[R_rear_hand03]
6 101.539970 5.215704 5.435467 83.366440 -30.933914 7.284830 101.819031
7 101.539970 5.215704 5.435467 83.366440 -30.933914 7.284830 101.819031
[Rope4_Seg01]
6 0.000038 0.000110 0.000000 50.085564 10.497561 127.130463 0.000116
7 0.000031 0.000109 0.000000 38.052586 6.860334 145.030991 0.000113
[Rope4_Seg02]
6 139.999985 0.000060 0.000119 0.763004 -29.362764 -11.731489 139.999985
7 139.999985 0.000060 0.000119 11.018834 -22.169847 -20.736916 139.999985
[Rope4_Seg03]
6 139.999924 0.000000 -0.000238 0.965856 -18.167389 -7.495470 139.999924
7 139.999924 0.000000 -0.000238 4.686109 -22.682360 -16.464006 139.999924
[Rope4_Seg04]
6 139.999985 0.000000 0.000119 0.603418 -10.820973 -4.199605 139.999985
7 139.999985 0.000000 0.000119 1.512161 -15.704649 -10.631496 139.999985
[Rope4_Seg05]
6 139.999802 -0.000060 -0.000119 0.111831 -2.223074 -1.088780 139.999802
7 139.999802 -0.000060 -0.000119 0.089599 -4.801320 -3.041774 139.999802
[Rope4_Seg06]
6 139.999924 0.000000 0.000060 -0.050260 1.792140 0.159156 139.999924
7 139.999924 0.000000 0.000060 0.146598 -0.730009 -0.236669 139.999924
[Rope4_Seg07]
6 139.999802 0.000000 0.000000 -0.058663 7.099802 1.583733 139.999802
7 139.999802 0.000000 0.000000 0.394063 2.640736 2.212306 139.999802
[Rope4_Seg08]
6 139.999924 0.000000 0.000119 -1.487729 5.244596 0.993113 139.999924
7 139.999924 0.000000 0.000119 -1.220022 2.867067 2.395591 139.999924
[Rope4_Seg09]
6 90.185791 0.000060 0.000060 -135.617828 2.228885 0.850567 90.185791
7 90.185791 0.000060 0.000060 -135.617828 2.228885 0.850567 90.185791
[L_rear_hand01]
6 101.696655 -8.392275 -7.654577 -34.454281 -18.946800 151.655121 102.329041
7 101.696655 -8.392275 -7.654577 -34.454281 -18.946800 151.655121 102.329041
[L_rear_hand02]
6 102.726799 -1.568258 5.773216 83.407906 30.330435 172.796509 102.900848
7 102.726799 -1.568258 5.773216 83.407906 30.330435 172.796509 102.900848
[L_rear_hand03]
6 104.552910 9.721220 -10.420293 -161.379868 -16.473232 -150.512238 105.519653
7 104.552910 9.721220 -10.420293 -161.379868 -16.473232 -150.512238 105.519653
